<?xml version="1.0" encoding="UTF-8"?>
<svg xmlns="http://www.w3.org/2000/svg" viewBox="0 0 2048 2048">
  <defs>
    <style>
      .cls-1 {
        fill: #fff;
        stroke: #000;
        stroke-miterlimit: 10;
        stroke-width: .5px;
      }

      .cls-2 {
        fill: #231f20;
        stroke-width: 0px;
      }
    </style>
  </defs>
  <g id="Body">
    <path class="cls-1" d="M977.93,1156.49c-3.22-2.54-7.36-6.21-11.52-11.23-1.43-1.73-6.04-7.45-10.37-16.42-9.84-20.38-9.92-40.38-9.5-48.96.29-6.07.71-13.62,3.74-23.04,5.41-16.79,15.31-27.64,19.87-32.54,4.18-4.49,8.09-7.83,10.94-10.08l2.09-.02.79-108.84c-6.94.79-66.8,8.47-93.31,56.16-3.39,6.09-14.25,25.63-13.82,50.98.4,23.91,7.78,47.52,7.78,47.52,2.56,8.2,5.18,14.3,5.18,24.19,0,2.42.07,12.5-6.91,26.78-5.78,11.84-12.89,19.45-14.88,21.6-14.55,15.7-34.2,40.14-44.74,57.6-15.53,25.74-19.3,49.65-21.6,64.22-3.3,20.9-5.64,37.37,2.59,55.3,2.05,4.47,11.56,25.16,30.24,29.38,3.23.73,7.8,1.21,28.51-4.32,15.28-4.08,24.55-6.56,38.02-12.1,21.13-8.7,25.98-14,55.3-28.51,10.94-5.42,20.04-9.52,25.92-12.1l.58-123.26-4.9-2.3Z"/>
    <path class="cls-1" d="M1084.78,908.14l1.92,105.6c6.39,4.95,18.71,15.89,26.5,34.18,7.52,17.66,6.89,32.96,6.53,39.94-2,38.27-27.11,64.28-34.94,71.81l.38,57.6c11.23-7.31,25.35-17.31,40.7-30.34,25.75-21.84,42.82-41.9,50.3-51.07,18.4-22.55,29.98-41.99,34.94-50.69,8.61-15.08,15.1-26.44,20.35-42.24,8.63-25.94,8.43-47.28,8.06-67.58-.37-20.3-1.25-52.58-16.51-91.01-15.06-37.92-36.17-61.76-41.47-67.58-16.8-18.43-34.39-30.92-43.39-37.25-10.12-7.11-19.14-12.49-26.02-16.32-6.85-3.67-12.81-6.77-17.95-9.5-1.78-.95-5.47-2.91-8.45-1.54-.34.16-1.55.72-2.02,1.92-.14.36-.75,2.12,1.82,5.47,4.71,6.13,14.57,10.45,16.13,11.14,6.66,2.95,12.43,7.62,18.82,11.14,18.1,9.98,36.45,30.68,42.62,37.63,44.03,49.63,56.45,101.76,56.45,101.76,1.02,4.29,13.57,59.58-4.61,115.97-5.6,17.36-13.78,32.89-24.58,53.38-13.63,25.85-16.62,26.45-17.66,26.11-3.85-1.26-.85-21.85,1.54-33.02,2.43-11.41,4.2-12.9,8.45-29.57,2.7-10.59,4.46-17.49,5.38-26.11,1.94-18.3-1.15-32.7-1.92-36.1-1.14-4.99-6.57-27.05-25.34-47.62-22.63-24.78-50.34-31.74-60.67-33.79l-15.36-2.3Z"/>
    <path class="cls-1" d="M1222.44,1147.27c10.23,11.29,66.1,75.05,53.57,158.11-6.04,40.02-25.32,67.07-36.29,82.08-61.72,84.48-164.38,95.87-184.03,97.63-66.32,5.93-118.88-14.49-146.02-27.65-.29-1.82-.58-3.65-.86-5.47-.61-6.78-.78-16.97,2.02-28.8,3.87-16.37,11.32-27.27,17.57-36,7.27-10.15,20.25-25.62,41.47-39.74l3.55,1.92c3.68,1.25,7.52,2.41,11.52,3.46,8.35,2.18,33.51,8.08,66.05,4.22,20.07-2.38,37.21-7.79,50.88-13.63v-24.38l-17.28,5.38.38-49.34c2.98-1.77,7.65-4.6,13.25-8.26,8.81-5.75,38.02-25.38,83.33-72.96,9.71-10.19,22.79-24.44,37.63-42.24l3.26-4.32Z"/>
    <polygon class="cls-1" points="1018.1 1317.05 1004.06 1329.72 1018.1 1329.72 1018.1 1317.05"/>
    <polygon class="cls-1" points="1039.92 1305.74 1035.96 1305.74 1027.82 1314.31 1027.82 1330.01 1039.92 1330.01 1039.92 1305.74"/>
    <polygon class="cls-1" points="1059.58 1294.15 1055.98 1294.15 1047.91 1302.22 1047.91 1329.72 1059.58 1329.72 1059.58 1294.15"/>
    <polygon class="cls-1" points="1075.27 1281.48 1067.5 1286.66 1067.5 1327.85 1075.27 1327.85 1075.27 1281.48"/>
    <path class="cls-1" d="M1089.1,528.65c1.89.34,4.65.5,7.2-.86,2.1-1.12,2.79-2.58,5.18-5.47,3.71-4.47,5.57-6.7,7.49-6.91,4.96-.54,14.07,10.73,10.94,20.45-2.05,6.36-9.15,11.48-13.54,10.08-4.06-1.3-3.79-7.54-9.79-10.66-2.67-1.39-5.33-1.5-6.91-1.44l-.58-.07v-5.11Z"/>
    <path class="cls-1" d="M1089.1,488.33c1.89.34,4.65.5,7.2-.86,2.1-1.12,2.79-2.58,5.18-5.47,3.71-4.47,5.57-6.7,7.49-6.91,4.96-.54,14.07,10.73,10.94,20.45-2.05,6.36-9.15,11.48-13.54,10.08-4.06-1.3-3.79-7.54-9.79-10.66-2.67-1.39-5.33-1.5-6.91-1.44l-.58-.07v-5.11Z"/>
    <path class="cls-1" d="M1089.1,448.01c1.89.34,4.65.5,7.2-.86,2.1-1.12,2.79-2.58,5.18-5.47,3.71-4.47,5.57-6.7,7.49-6.91,4.96-.54,14.07,10.73,10.94,20.45-2.05,6.36-9.15,11.48-13.54,10.08-4.06-1.3-3.79-7.54-9.79-10.66-2.67-1.39-5.33-1.5-6.91-1.44l-.58-.07v-5.11Z"/>
    <path class="cls-1" d="M974.82,528.65c-1.89.34-4.65.5-7.2-.86-2.1-1.12-2.79-2.58-5.18-5.47-3.71-4.47-5.57-6.7-7.49-6.91-4.96-.54-14.07,10.73-10.94,20.45,2.05,6.36,9.15,11.48,13.54,10.08,4.06-1.3,3.79-7.54,9.79-10.66,2.67-1.39,5.33-1.5,6.91-1.44l.58-.07v-5.11Z"/>
    <path class="cls-1" d="M974.82,488.33c-1.89.34-4.65.5-7.2-.86-2.1-1.12-2.79-2.58-5.18-5.47-3.71-4.47-5.57-6.7-7.49-6.91-4.96-.54-14.07,10.73-10.94,20.45,2.05,6.36,9.15,11.48,13.54,10.08,4.06-1.3,3.79-7.54,9.79-10.66,2.67-1.39,5.33-1.5,6.91-1.44l.58-.07v-5.11Z"/>
    <path class="cls-1" d="M974.82,448.01c-1.89.34-4.65.5-7.2-.86-2.1-1.12-2.79-2.58-5.18-5.47-3.71-4.47-5.57-6.7-7.49-6.91-4.96-.54-14.07,10.73-10.94,20.45,2.05,6.36,9.15,11.48,13.54,10.08,4.06-1.3,3.79-7.54,9.79-10.66,2.67-1.39,5.33-1.5,6.91-1.44l.58-.07v-5.11Z"/>
  </g>
  <g id="BackAesthetic">
    <path class="cls-1" d="M1085.93,694.25c15.61-5.9,59.27-24.81,82.94-70.27,6.75-12.95,18.69-35.89,13.82-63.36-4.14-23.38-19.43-44.23-21.02-46.37-8.79-11.78-17.1-18.18-15.84-19.87,1.73-2.31,19.35,6.73,33.98,17.86,9.04,6.87,21.74,16.54,31.39,32.54,20.18,33.47,12.17,70.06,10.37,77.47-8.14,33.56-30.25,52.74-43.49,64.22-34.63,30.04-73.52,37.32-92.45,39.46l.29-31.68Z"/>
    <path class="cls-1" d="M981.86,734.95c-16.93,4.81-41.49,13.92-67.2,31.87-7.66,5.35-30.82,22.23-52.61,51.46-18.31,24.57-28.7,48.53-27.65,49.15.93.55,9.96-17.81,28.8-39.55,22.29-25.72,45.3-41.14,57.22-48.38,22.24-13.53,43.65-21.59,61.44-26.5v-18.05Z"/>
  </g>
  <g id="Machine">
    <path class="cls-1" d="M1076.71,577.68c2.08-.88,4.81-2.28,7.63-4.54,2.56-2.04,4.41-4.14,5.69-5.83l.12-1.22v-143.71c-9.02-5.21-30.43-15.96-59.52-15.36-25.96.53-45.12,9.84-54.14,14.98v145.15l.38.96c.82,1.39,2.18,3.31,4.32,5.09,3.33,2.77,6.79,3.75,8.64,4.13l1.63,699.84,85.25-54.14v-645.34Z"/>
    <polygon class="cls-2" points="999.82 576.74 1000.39 1266.79 1007.88 1262.18 1007.88 576.74 999.82 576.74"/>
    <polygon class="cls-2" points="1019.69 576.74 1018.73 1256.42 1027.94 1250.28 1027.94 576.74 1019.69 576.74"/>
    <polygon class="cls-2" points="1037.98 576.74 1040.14 1243.75 1048.2 1238.86 1048.2 576.74 1037.98 576.74"/>
    <polygon class="cls-2" points="1058.28 576.74 1060.3 1229.64 1068.07 1224.74 1065.96 576.74 1058.28 576.74"/>
  </g>
</svg>